<?xml version="1.0" encoding="UTF-8" standalone="no"?>
<svg
   xmlns:dc="http://purl.org/dc/elements/1.1/"
   xmlns:cc="http://creativecommons.org/ns#"
   xmlns:rdf="http://www.w3.org/1999/02/22-rdf-syntax-ns#"
   xmlns:svg="http://www.w3.org/2000/svg"
   xmlns="http://www.w3.org/2000/svg"
   xmlns:sodipodi="http://sodipodi.sourceforge.net/DTD/sodipodi-0.dtd"
   xmlns:inkscape="http://www.inkscape.org/namespaces/inkscape"
   width="125mm"
   height="125mm"
   viewBox="0 0 125 125"
   version="1.1"
   id="svg2344"
   inkscape:version="1.0.1 (3bc2e813f5, 2020-09-07)"
   sodipodi:docname="afk.svg">
  <defs
     id="defs2338" />
  <sodipodi:namedview
     id="base"
     pagecolor="#ffffff"
     bordercolor="#666666"
     borderopacity="1.0"
     inkscape:pageopacity="0.0"
     inkscape:pageshadow="2"
     inkscape:zoom="0.7"
     inkscape:cx="518.8223"
     inkscape:cy="266.2655"
     inkscape:document-units="mm"
     inkscape:current-layer="layer1"
     inkscape:document-rotation="0"
     showgrid="false"
     inkscape:window-width="1920"
     inkscape:window-height="1017"
     inkscape:window-x="-8"
     inkscape:window-y="-8"
     inkscape:window-maximized="1" />
  <metadata
     id="metadata2341">
    <rdf:RDF>
      <cc:Work
         rdf:about="">
        <dc:format>image/svg+xml</dc:format>
        <dc:type
           rdf:resource="http://purl.org/dc/dcmitype/StillImage" />
        <dc:title></dc:title>
      </cc:Work>
    </rdf:RDF>
  </metadata>
  <g
     inkscape:label="Layer 1"
     inkscape:groupmode="layer"
     id="layer1">
    <text
       xml:space="preserve"
       style="font-style:normal;font-weight:normal;font-size:10.5833px;line-height:1.25;font-family:sans-serif;fill:#000000;fill-opacity:1;stroke:none;stroke-width:0.264583"
       x="61.043156"
       y="150.05655"
       id="text2389"><tspan
         sodipodi:role="line"
         id="tspan2387"
         x="61.043156"
         y="150.05655"
         style="stroke-width:0.264583" /></text>
    <g
       id="g199">
      <path
         id="rect2349"
         style="fill:#ffffff;stroke:#000000;stroke-width:1.965;stroke-linecap:round;stroke-linejoin:round"
         d="M 4.422321,78.54345 C 4.80022,75.29003 7.188485,74.22871 7.188485,74.22871 L 71.626434,46.05104 c 0,0 5.78393,-2.27378 8.95809,-1.90343 2.89465,0.33774 7.23279,3.39975 7.23279,3.39975 l 28.059646,21.80025 c 0,0 1.7688,2.73233 1.56024,4.47114 -0.22163,1.84788 -2.6775,4.27263 -2.6775,4.27263 l -64.570021,27.67866 c 0,0 -4.298442,2.48387 -7.780753,2.06656 -2.314292,-0.27733 -7.483921,-2.11666 -7.483921,-2.11666 L 6.350006,83.53274 c 0,0 -2.174811,-2.86173 -1.927685,-4.98929 z"
         sodipodi:nodetypes="sccsccsccsccs" />
      <path
         id="rect2349-8"
         style="fill:#ffffff;stroke:#000000;stroke-width:1.965;stroke-linecap:round;stroke-linejoin:round"
         d="m 5.53958,72.44553 c 0.377899,-3.25342 2.766164,-4.31474 2.766164,-4.31474 l 64.43795,-28.17767 c 0,0 5.78393,-2.27378 8.95809,-1.90343 2.89465,0.33774 7.23279,3.39975 7.23279,3.39975 l 28.059646,21.80025 c 0,0 1.7688,2.73233 1.56024,4.47114 -0.22163,1.84788 -2.6775,4.27263 -2.6775,4.27263 L 51.306934,99.67212 c 0,0 -4.29844,2.48387 -7.78075,2.06656 -2.31429,-0.27733 -7.48392,-2.11666 -7.48392,-2.11666 L 7.467265,77.43482 c 0,0 -2.174811,-2.86173 -1.927685,-4.98929 z"
         sodipodi:nodetypes="sccsccsccsccs" />
      <path
         id="rect2349-5"
         style="fill:#ffffff;stroke:#000000;stroke-width:1.59371;stroke-linecap:round;stroke-linejoin:round"
         d="m 15.383499,71.51428 c 0.3065,-2.63869 2.2435,-3.49947 2.2435,-3.49947 l 52.262395,-22.8535 c 0,0 4.69105,-1.84415 7.26545,-1.54377 2.34771,0.27392 5.86616,2.75736 5.86616,2.75736 l 22.757776,17.68109 c 0,0 1.43459,2.21606 1.26544,3.62632 -0.17976,1.49872 -2.17159,3.46532 -2.17159,3.46532 L 52.503119,93.5964 c 0,0 -3.48625,2.01455 -6.31059,1.67609 -1.877,-0.22493 -6.06982,-1.71672 -6.06982,-1.71672 L 16.946959,75.56084 c 0,0 -1.76389,-2.321 -1.56346,-4.04656 z"
         sodipodi:nodetypes="sccsccsccsccs" />
      <path
         id="rect2349-3"
         style="fill:#ffffff;stroke:#000000;stroke-width:0.507382;stroke-linecap:round;stroke-linejoin:round"
         d="m 47.720214,67.70466 c 0.09758,-0.84006 0.714251,-1.11411 0.714251,-1.11411 L 65.072974,59.3148 c 0,0 1.49347,-0.58711 2.31307,-0.49148 0.74743,0.0872 1.86758,0.87785 1.86758,0.87785 l 7.24528,5.62904 c 0,0 0.45672,0.70551 0.40287,1.15449 -0.0572,0.47714 -0.69136,1.10323 -0.69136,1.10323 l -16.672617,7.14691 c 0,0 -1.1099,0.64136 -2.009067,0.5336 -0.597573,-0.0716 -1.932422,-0.54654 -1.932422,-0.54654 l -7.378346,-5.72895 c 0,0 -0.561558,-0.73893 -0.497748,-1.28829 z"
         sodipodi:nodetypes="sccsccsccsccs" />
      <path
         id="rect2349-8-4"
         style="fill:#ffffff;stroke:#000000;stroke-width:0.507382;stroke-linecap:round;stroke-linejoin:round"
         d="m 48.008702,66.13012 c 0.09758,-0.84007 0.71425,-1.11411 0.71425,-1.11411 l 16.638512,-7.27575 c 0,0 1.49347,-0.58711 2.31307,-0.49149 0.74743,0.0872 1.86758,0.87785 1.86758,0.87785 l 7.24528,5.62904 c 0,0 0.45672,0.70552 0.40287,1.15449 -0.0572,0.47715 -0.69136,1.10324 -0.69136,1.10324 l -16.67262,7.1469 c 0,0 -1.1099,0.64136 -2.009067,0.53361 -0.597572,-0.0716 -1.932422,-0.54654 -1.932422,-0.54654 L 48.506449,67.4184 c 0,0 -0.561558,-0.73892 -0.497747,-1.28828 z"
         sodipodi:nodetypes="sccsccsccsccs" />
      <path
         id="rect2349-5-9"
         style="fill:#ffffff;stroke:#000000;stroke-width:0.411512;stroke-linecap:round;stroke-linejoin:round"
         d="m 50.550499,65.88966 c 0.07914,-0.68133 0.579294,-0.9036 0.579294,-0.9036 l 13.494661,-5.901 c 0,0 1.21128,-0.47617 1.87601,-0.39861 0.60621,0.0707 1.5147,0.71198 1.5147,0.71198 l 5.87629,4.56543 c 0,0 0.37042,0.57221 0.32675,0.93635 -0.0464,0.38698 -0.56073,0.89478 -0.56073,0.89478 l -13.52232,5.79649 c 0,0 -0.900188,0.52018 -1.629461,0.43279 -0.484659,-0.0581 -1.567287,-0.44328 -1.567287,-0.44328 L 50.9542,66.93452 c 0,0 -0.455454,-0.5993 -0.403701,-1.04486 z"
         sodipodi:nodetypes="sccsccsccsccs" />
      <path
         id="rect2349-3-4"
         style="fill:#ffffff;stroke:#000000;stroke-width:0.119718;stroke-linecap:round;stroke-linejoin:round"
         d="m 59.603833,65.74984 c 0.023,-0.19822 0.168531,-0.26288 0.168531,-0.26288 l 3.92589,-1.71673 c 0,0 0.35239,-0.13853 0.54578,-0.11597 0.17636,0.0206 0.44066,0.20713 0.44066,0.20713 l 1.70954,1.32819 c 0,0 0.10776,0.16647 0.0951,0.2724 -0.0135,0.11259 -0.16313,0.26031 -0.16313,0.26031 l -3.93395,1.68633 c 0,0 -0.26188,0.15134 -0.47404,0.12591 -0.141,-0.0169 -0.45596,-0.12896 -0.45596,-0.12896 l -1.74094,-1.35176 c 0,0 -0.132501,-0.17435 -0.117441,-0.30397 z"
         sodipodi:nodetypes="sccsccsccsccs" />
      <path
         id="rect2349-8-4-9"
         style="fill:#ffffff;stroke:#000000;stroke-width:0.119718;stroke-linecap:round;stroke-linejoin:round"
         d="m 59.671904,65.37832 c 0.023,-0.19822 0.16853,-0.26288 0.16853,-0.26288 l 3.92589,-1.71673 c 0,0 0.35239,-0.13853 0.54578,-0.11596 0.17636,0.0206 0.44066,0.20713 0.44066,0.20713 l 1.70954,1.32818 c 0,0 0.10776,0.16647 0.095,0.27241 -0.0135,0.11258 -0.16312,0.26031 -0.16312,0.26031 l -3.93395,1.68633 c 0,0 -0.26188,0.15133 -0.47404,0.1259 -0.141,-0.0169 -0.45596,-0.12895 -0.45596,-0.12895 l -1.74094,-1.35177 c 0,0 -0.1325,-0.17435 -0.11744,-0.30397 z"
         sodipodi:nodetypes="sccsccsccsccs" />
      <path
         id="rect2349-5-9-0"
         style="fill:#ffffff;stroke:#000000;stroke-width:0.0970972;stroke-linecap:round;stroke-linejoin:round"
         d="m 60.271644,65.32158 c 0.0187,-0.16076 0.13668,-0.2132 0.13668,-0.2132 l 3.1841,-1.39236 c 0,0 0.28581,-0.11235 0.44265,-0.094 0.14304,0.0167 0.3574,0.16799 0.3574,0.16799 l 1.38652,1.07723 c 0,0 0.0874,0.13501 0.0771,0.22093 -0.011,0.0913 -0.1323,0.21113 -0.1323,0.21113 l -3.19063,1.36769 c 0,0 -0.2124,0.12274 -0.38447,0.10212 -0.11436,-0.0137 -0.36981,-0.10459 -0.36981,-0.10459 l -1.41199,-1.09635 c 0,0 -0.10746,-0.14141 -0.0952,-0.24654 z"
         sodipodi:nodetypes="sccsccsccsccs" />
      <g
         aria-label="z."
         id="text2439"
         style="font-style:normal;font-weight:normal;font-size:18.8426px;line-height:1.25;font-family:sans-serif;fill:#000000;fill-opacity:1;stroke:none;stroke-width:0.471065">
        <path
           d="m 82.592206,21.747833 h 8.041227 v 1.545682 l -6.366738,7.406393 h 6.366738 v 1.352472 h -8.271239 v -1.545682 l 6.366738,-7.406393 h -6.136726 z"
           style="stroke-width:0.471065"
           id="path160" />
        <path
           d="m 93.457983,29.715456 h 1.941303 v 2.336924 h -1.941303 z"
           style="stroke-width:0.471065"
           id="path162" />
      </g>
      <g
         aria-label="z."
         id="text2443"
         style="font-style:normal;font-weight:normal;font-size:13.3052px;line-height:1.25;font-family:sans-serif;fill:#000000;fill-opacity:1;stroke:none;stroke-width:0.332628">
        <path
           d="m 95.310678,12.999457 h 5.678102 v 1.091442 l -4.495706,5.229827 h 4.495706 v 0.955012 h -5.840519 v -1.091442 l 4.495702,-5.229827 h -4.333285 z"
           style="stroke-width:0.332628"
           id="path165" />
        <path
           d="m 102.98326,18.625581 h 1.3708 v 1.650157 h -1.3708 z"
           style="stroke-width:0.332628"
           id="path167" />
      </g>
      <g
         aria-label="ect."
         id="text2447"
         style="font-style:normal;font-weight:normal;font-size:5.68998px;line-height:1.25;font-family:sans-serif;fill:#000000;fill-opacity:1;stroke:none;stroke-width:0.14225">
        <path
           d="m 107.68351,9.356998 v 0.2500479 h -2.35045 q 0.0333,0.5278791 0.31672,0.8057101 0.28617,0.275053 0.7946,0.275053 0.2945,0 0.56955,-0.07224 0.27784,-0.07224 0.55011,-0.216709 v 0.483426 q -0.27505,0.11669 -0.564,0.177812 -0.28894,0.06112 -0.58622,0.06112 -0.74459,0 -1.18078,-0.433416 -0.43342,-0.433417 -0.43342,-1.1724473 0,-0.7640354 0.41119,-1.2113434 0.41397,-0.4500863 1.1141,-0.4500863 0.6279,0 0.99186,0.4056333 0.36674,0.402855 0.36674,1.0974327 z M 107.1723,9.2069692 q -0.006,-0.4195249 -0.23616,-0.6695728 -0.22782,-0.250048 -0.60567,-0.250048 -0.42786,0 -0.68624,0.241713 -0.25561,0.2417131 -0.2945,0.6806861 z"
           style="stroke-width:0.14225"
           id="path170" />
        <path
           d="m 110.76188,8.0484137 v 0.4778694 q -0.21671,-0.1194673 -0.4362,-0.1778119 -0.21671,-0.061123 -0.43897,-0.061123 -0.49732,0 -0.77237,0.3167274 -0.27506,0.3139491 -0.27506,0.8835028 0,0.5695534 0.27506,0.8862814 0.27505,0.313949 0.77237,0.313949 0.22226,0 0.43897,-0.05834 0.21949,-0.06112 0.4362,-0.18059 v 0.472313 q -0.21393,0.100019 -0.44453,0.150029 -0.22783,0.05001 -0.48621,0.05001 -0.70291,0 -1.11688,-0.441751 -0.41397,-0.441752 -0.41397,-1.1918954 0,-0.7612571 0.41675,-1.1974519 0.41952,-0.4361947 1.14744,-0.4361947 0.23616,0 0.4612,0.05001 0.22504,0.047231 0.4362,0.1444721 z"
           style="stroke-width:0.14225"
           id="path172" />
        <path
           d="m 112.15659,7.0454436 v 0.8835028 h 1.05298 v 0.3972984 h -1.05298 v 1.6892132 q 0,0.380628 0.1028,0.488982 0.10557,0.108354 0.42508,0.108354 h 0.5251 v 0.42786 h -0.5251 q -0.59178,0 -0.81683,-0.219486 -0.22504,-0.222265 -0.22504,-0.80571 V 8.3262448 h -0.37507 V 7.9289464 h 0.37507 V 7.0454436 Z"
           style="stroke-width:0.14225"
           id="path174" />
        <path
           d="m 113.95416,10.334963 h 0.58622 v 0.705691 h -0.58622 z"
           style="stroke-width:0.14225"
           id="path176" />
      </g>
    </g>
  </g>
</svg>
