<?xml version="1.0" encoding="UTF-8" standalone="no"?>
<svg
   xmlns:dc="http://purl.org/dc/elements/1.1/"
   xmlns:cc="http://creativecommons.org/ns#"
   xmlns:rdf="http://www.w3.org/1999/02/22-rdf-syntax-ns#"
   xmlns:svg="http://www.w3.org/2000/svg"
   xmlns="http://www.w3.org/2000/svg"
   xmlns:sodipodi="http://sodipodi.sourceforge.net/DTD/sodipodi-0.dtd"
   xmlns:inkscape="http://www.inkscape.org/namespaces/inkscape"
   width="125mm"
   height="120mm"
   viewBox="0 0 125 120"
   version="1.1"
   id="svg1722"
   inkscape:version="1.0.1 (3bc2e813f5, 2020-09-07)"
   sodipodi:docname="cake.svg">
  <defs
     id="defs1716" />
  <sodipodi:namedview
     id="base"
     pagecolor="#ffffff"
     bordercolor="#666666"
     borderopacity="1.0"
     inkscape:pageopacity="0.0"
     inkscape:pageshadow="2"
     inkscape:zoom="0.98994949"
     inkscape:cx="191.12084"
     inkscape:cy="378.81267"
     inkscape:document-units="mm"
     inkscape:current-layer="layer1"
     inkscape:document-rotation="0"
     showgrid="false"
     inkscape:snap-nodes="false"
     inkscape:window-width="1920"
     inkscape:window-height="1017"
     inkscape:window-x="-8"
     inkscape:window-y="-8"
     inkscape:window-maximized="1" />
  <metadata
     id="metadata1719">
    <rdf:RDF>
      <cc:Work
         rdf:about="">
        <dc:format>image/svg+xml</dc:format>
        <dc:type
           rdf:resource="http://purl.org/dc/dcmitype/StillImage" />
        <dc:title></dc:title>
      </cc:Work>
    </rdf:RDF>
  </metadata>
  <g
     inkscape:label="Layer 1"
     inkscape:groupmode="layer"
     id="layer1">
    <g
       id="g230">
      <g
         id="g220"
         transform="translate(-54.790253,-85.477898)">
        <path
           id="rect1727"
           style="fill:#ffffff;stroke:#000000;stroke-width:2.165;stroke-linecap:round;stroke-linejoin:round"
           d="m 91.673449,139.57627 79.913591,-30.46872 0.48709,47.70863 -80.911248,39.34891 z"
           sodipodi:nodetypes="ccccc" />
        <path
           id="rect1730"
           style="fill:#ffffff;fill-opacity:1;stroke:#000000;stroke-width:2.165;stroke-linecap:round;stroke-linejoin:round"
           d="m 63.548568,129.09117 c 7.122443,6.36832 14.624886,12.21415 27.347044,10.88286 0,0 -0.728525,54.83312 0.26727,56.19106 -11.472171,-4.15598 -24.167032,-7.42272 -28.12488,-17.04366 -4.483866,-16.52364 -4.270345,-33.50662 0.510566,-50.03026 z"
           sodipodi:nodetypes="ccccc" />
        <path
           id="rect1732"
           style="fill:#ffffff;stroke:#000000;stroke-width:2.165;stroke-linecap:round;stroke-linejoin:round"
           d="M 63.548568,129.09117 171.58704,109.10755 91.673449,139.57627 c -14.897049,0.32795 -22.41177,-4.45494 -28.124881,-10.4851 z"
           sodipodi:nodetypes="cccc" />
        <path
           id="rect1736"
           style="fill:#000000;fill-opacity:1;stroke:#000000;stroke-width:2.165;stroke-linecap:round;stroke-linejoin:round"
           d="M 97.505928,143.71997 171.53959,115.3894 v 7.48355 l -74.033662,31.27053 z"
           sodipodi:nodetypes="ccccc" />
        <path
           id="rect1736-2"
           style="fill:#000000;fill-opacity:1;stroke:#000000;stroke-width:2.165;stroke-linecap:round;stroke-linejoin:round"
           d="M 97.954277,158.62447 171.98795,130.2939 v 7.48355 l -74.033673,31.27053 z"
           sodipodi:nodetypes="ccccc" />
        <path
           id="rect1736-5"
           style="fill:#000000;fill-opacity:1;stroke:#000000;stroke-width:2.165;stroke-linecap:round;stroke-linejoin:round"
           d="m 97.687012,173.59156 74.033658,-30.46872 v 7.21628 l -74.033658,33.67596 z"
           sodipodi:nodetypes="ccccc" />
        <path
           style="fill:#ffffff;fill-opacity:1;stroke:#000000;stroke-width:1.965;stroke-linecap:butt;stroke-linejoin:miter;stroke-miterlimit:4;stroke-dasharray:none;stroke-opacity:1"
           d="m 94.346141,91.673449 c -2.532448,2.34346 -2.664858,6.915844 -4.687886,8.942631 -12.281893,12.3047 -17.578295,17.03757 -14.822789,27.13875 1.07367,3.93588 6.409462,5.68557 10.423512,6.41447 6.876417,1.24867 14.363372,-0.81515 20.579752,-4.00904 3.92391,-2.01605 6.8922,-2.01487 7.21627,-6.41447 0.39148,-5.31464 -10.10865,-10.90933 -13.630739,-17.37252 -2.480623,-4.55205 -5.07812,-14.699821 -5.07812,-14.699821 z"
           id="path2336"
           sodipodi:nodetypes="cssssssc" />
      </g>
    </g>
  </g>
</svg>
