<?xml version="1.0" encoding="UTF-8" standalone="no"?>
<svg
   xmlns:dc="http://purl.org/dc/elements/1.1/"
   xmlns:cc="http://creativecommons.org/ns#"
   xmlns:rdf="http://www.w3.org/1999/02/22-rdf-syntax-ns#"
   xmlns:svg="http://www.w3.org/2000/svg"
   xmlns="http://www.w3.org/2000/svg"
   xmlns:sodipodi="http://sodipodi.sourceforge.net/DTD/sodipodi-0.dtd"
   xmlns:inkscape="http://www.inkscape.org/namespaces/inkscape"
   width="170mm"
   height="140mm"
   viewBox="0 0 170 140"
   version="1.1"
   id="svg8"
   inkscape:version="1.0.1 (3bc2e813f5, 2020-09-07)"
   sodipodi:docname="stickfigurethrowsphoneatground.svg">
  <defs
     id="defs2" />
  <sodipodi:namedview
     id="base"
     pagecolor="#ffffff"
     bordercolor="#666666"
     borderopacity="1.0"
     inkscape:pageopacity="0.0"
     inkscape:pageshadow="2"
     inkscape:zoom="0.9899495"
     inkscape:cx="195.29567"
     inkscape:cy="308.12771"
     inkscape:document-units="mm"
     inkscape:current-layer="layer1"
     inkscape:document-rotation="0"
     showgrid="false"
     inkscape:snap-intersection-paths="true"
     inkscape:snap-midpoints="true"
     inkscape:snap-nodes="false"
     inkscape:window-width="1920"
     inkscape:window-height="1017"
     inkscape:window-x="-8"
     inkscape:window-y="-8"
     inkscape:window-maximized="1"
     units="mm" />
  <metadata
     id="metadata5">
    <rdf:RDF>
      <cc:Work
         rdf:about="">
        <dc:format>image/svg+xml</dc:format>
        <dc:type
           rdf:resource="http://purl.org/dc/dcmitype/StillImage" />
        <dc:title></dc:title>
      </cc:Work>
    </rdf:RDF>
  </metadata>
  <g
     inkscape:label="Layer 1"
     inkscape:groupmode="layer"
     id="layer1">
    <g
       id="g68"
       transform="translate(3.7417731,-96.751565)">
      <g
         id="g1680"
         inkscape:export-xdpi="96"
         inkscape:export-ydpi="96">
        <path
           id="path1708"
           style="color:#000000;font-style:normal;font-variant:normal;font-weight:normal;font-stretch:normal;font-size:medium;line-height:normal;font-family:sans-serif;font-variant-ligatures:normal;font-variant-position:normal;font-variant-caps:normal;font-variant-numeric:normal;font-variant-alternates:normal;font-variant-east-asian:normal;font-feature-settings:normal;font-variation-settings:normal;text-indent:0;text-align:start;text-decoration:none;text-decoration-line:none;text-decoration-style:solid;text-decoration-color:#000000;letter-spacing:normal;word-spacing:normal;text-transform:none;writing-mode:lr-tb;direction:ltr;text-orientation:mixed;dominant-baseline:auto;baseline-shift:baseline;text-anchor:start;white-space:normal;shape-padding:0;shape-margin:0;inline-size:0;clip-rule:nonzero;display:inline;overflow:visible;visibility:visible;opacity:1;isolation:auto;mix-blend-mode:normal;color-interpolation:sRGB;color-interpolation-filters:linearRGB;solid-color:#000000;solid-opacity:1;vector-effect:none;fill:#000000;fill-opacity:1;fill-rule:nonzero;stroke:none;stroke-width:63.3369;stroke-linecap:square;stroke-linejoin:round;stroke-miterlimit:4;stroke-dasharray:none;stroke-dashoffset:0;stroke-opacity:1;color-rendering:auto;image-rendering:auto;shape-rendering:auto;text-rendering:auto;enable-background:accumulate;stop-color:#000000;stop-opacity:1"
           d="m 248.5918,490.00977 c -3.73869,0.0224 -7.62893,0.10769 -11.68555,0.25195 -9.28599,0.33024 -19.50341,0.98787 -30.67969,1.88867 a 18.897638,18.897638 0 0 0 -0.0508,-0.18164 63.588635,70.699782 0 0 1 -31.73047,9.43164 63.588635,70.699782 0 0 1 -26.14648,-6.25391 c -30.81852,17.0625 -48.946289,35.22602 -62.542971,52.72266 -17.80807,22.91599 -27.679059,42.05605 -54.921875,62.8125 a 18.897638,18.897638 0 0 0 -3.580078,26.48633 18.897638,18.897638 0 0 0 26.486328,3.58008 c 32.757207,-24.95789 46.450556,-49.86454 61.853516,-69.68555 5.61111,-7.22056 11.48069,-14.11502 18.93359,-20.89453 -0.94104,1.6162 -1.84046,3.22546 -2.6875,4.83203 -7.48739,14.20131 -10.67519,29.53602 -10.11328,41.98828 1.12383,24.90456 7.78252,30.52664 4.68164,55.88867 l -3.84765,31.43946 62.87304,7.68359 3.83789,-31.43164 c 4.60673,-37.67838 -4.02037,-60.82163 -4.27343,-66.42969 -0.12654,-2.80403 -0.51957,-3.16465 2.87109,-9.5957 3.39066,-6.43109 11.31959,-17.65153 26.22852,-34.13477 l 19.93164,-22.03711 c 31.90038,-1.14692 49.55254,1.5269 59.06054,5.9961 12.16255,5.71691 17.44428,15.5195 29.84571,37.70703 a 18.897638,18.897638 0 0 0 25.71093,7.2793 18.897638,18.897638 0 0 0 7.2793,-25.71875 c -12.19284,-21.8143 -22.82869,-42.22682 -46.75781,-53.47461 -15.70349,-7.38133 -34.40534,-10.30733 -60.57617,-10.15039 z"
           transform="scale(0.26458333)" />
      </g>
      <path
         style="fill:none;stroke:#000000;stroke-width:10;stroke-linecap:round;stroke-linejoin:round;stroke-miterlimit:4;stroke-dasharray:none;stroke-opacity:1"
         d="m 42.18215,175.38094 c 37.201365,17.16426 31.444297,24.64542 30.994049,38.55359"
         id="path44-6"
         sodipodi:nodetypes="cc"
         inkscape:export-xdpi="96"
         inkscape:export-ydpi="96" />
      <path
         style="fill:none;stroke:#000000;stroke-width:10;stroke-linecap:round;stroke-linejoin:round;stroke-miterlimit:4;stroke-dasharray:none;stroke-opacity:1"
         d="m 37.646436,177.6488 c 0,0 -6.803569,34.52184 -25.702385,35.52977"
         id="path44-65"
         sodipodi:nodetypes="cc"
         inkscape:export-xdpi="96"
         inkscape:export-ydpi="96" />
      <rect
         style="fill:#000000;stroke-width:10;stroke-miterlimit:4;stroke-dasharray:none"
         id="rect902"
         width="18.142857"
         height="10.583333"
         x="241.54008"
         y="-50.654327"
         ry="5.2916665"
         transform="rotate(67.4)"
         inkscape:export-xdpi="96"
         inkscape:export-ydpi="96" />
      <ellipse
         style="fill:#000000;stroke-width:0.264583"
         id="path24"
         cx="46.229187"
         cy="117.75302"
         rx="12.095239"
         ry="12.851191"
         inkscape:export-xdpi="96"
         inkscape:export-ydpi="96" />
      <path
         style="fill:none;stroke:#000000;stroke-width:1.165;stroke-linecap:butt;stroke-linejoin:miter;stroke-miterlimit:4;stroke-dasharray:none;stroke-opacity:1"
         d="m 144.81226,221.8491 c 1.18596,-2.62009 2.94523,-6.8083 4.0431,-8.04428 0.0821,1.64601 0.14894,7.18855 0.3891,6.39088 0.63563,-0.726 5.55202,-4.34097 7.50187,-6.57036 -1.72837,8.27525 -2.40543,10.44364 -2.40543,10.44576"
         id="path957"
         sodipodi:nodetypes="ccccc"
         inkscape:export-xdpi="96"
         inkscape:export-ydpi="96" />
      <path
         style="fill:none;stroke:#000000;stroke-width:1.165;stroke-linecap:butt;stroke-linejoin:miter;stroke-miterlimit:4;stroke-dasharray:none;stroke-opacity:1"
         d="m 134.77538,222.03803 c -1.18596,-2.62009 -2.94523,-6.8083 -4.0431,-8.04428 -0.0821,1.64601 -0.14894,7.18855 -0.3891,6.39088 -0.63563,-0.726 -5.55202,-4.34097 -7.50187,-6.57036 1.72837,8.27525 2.40543,10.44364 2.40543,10.44576"
         id="path957-1"
         sodipodi:nodetypes="ccccc"
         inkscape:export-xdpi="96"
         inkscape:export-ydpi="96" />
    </g>
  </g>
</svg>
